<?xml version="1.0" encoding="utf-8"?><svg xmlns="http://www.w3.org/2000/svg" xmlns:xlink="http://www.w3.org/1999/xlink"><symbol viewBox="0 0 16 16" id="close" xmlns="http://www.w3.org/2000/svg"><path d="M8.884 8.001l6.933-6.933a.625.625 0 10-.884-.884L8 7.117 1.067.184a.625.625 0 10-.884.884L7.116 8 .183 14.934a.625.625 0 10.884.884L8 8.885l6.933 6.933a.623.623 0 00.884 0 .625.625 0 000-.884L8.884 8.001z"/></symbol><symbol viewBox="0 0 20 22" id="export" xmlns="http://www.w3.org/2000/svg"><path d="M18.013 1.394l-1.97 12.84-2.736-2.77c-3.906.836-7.61 3.423-11.058 7.849l-.298.387-.015-.104c-.127-1.04.02-2.295.352-3.68l.087-.35c.787-3.055 2.43-6.674 5.32-9.524l-2.892-3.17 13.21-1.478z"/></symbol><symbol viewBox="0 0 22 22" id="noAds" xmlns="http://www.w3.org/2000/svg"><path d="M1.667 13.358c.644 0 1.166.523 1.166 1.167v2.414c0 1.23.998 2.228 2.228 2.228h2.566a1.166 1.166 0 110 2.333H5.06A4.56 4.56 0 01.5 16.94v-2.415c0-.644.522-1.167 1.167-1.167zm18.666-.046c.645 0 1.167.522 1.167 1.166v2.461a4.56 4.56 0 01-4.56 4.561h-2.448a1.166 1.166 0 010-2.333h2.447c1.23 0 2.228-.998 2.228-2.228v-2.46c0-.645.522-1.167 1.166-1.167zm-3.394 1.082a.849.849 0 110 1.697H5.061a.849.849 0 110-1.697h11.878zm0-4.242a.849.849 0 110 1.696H5.061a.849.849 0 110-1.696h11.878zm0-9.652A4.56 4.56 0 0121.5 5.06v3.448a1.166 1.166 0 01-2.333 0V5.06c0-1.23-.998-2.228-2.228-2.228h-2.536a1.166 1.166 0 110-2.333h2.536zM7.601.5a1.167 1.167 0 010 2.333H5.06c-1.23 0-2.228.998-2.228 2.228v2.613a1.166 1.166 0 11-2.332 0V5.061A4.56 4.56 0 015.06.5H7.6zm9.338 5.41a.848.848 0 110 1.696H5.061a.849.849 0 110-1.697h11.878z"/></symbol><symbol viewBox="0 0 26 15" id="unlimitedDocs" xmlns="http://www.w3.org/2000/svg"><path d="M7.166 1.425c2.148 0 4.093 1.944 5.834 5.833-1.74 3.89-3.686 5.834-5.834 5.834a5.834 5.834 0 010-11.667zm11.667 0a5.833 5.833 0 110 11.667c-2.148 0-4.092-1.945-5.833-5.834 1.74-3.89 3.685-5.833 5.833-5.833z"/></symbol></svg>